<svg width="521" height="111" viewBox="0 0 521 111" fill="none" xmlns="http://www.w3.org/2000/svg">
<path d="M147.769 78.088L111.929 37.704L112.761 37.064L112.825 77H109.753V30.6H109.945L145.785 71.304L144.953 71.56L144.889 31.56H147.897V78.088H147.769ZM169.034 70.152C169.034 73.5227 168.416 76.4027 167.178 78.792C165.941 81.1813 164.277 82.9947 162.186 84.232C160.138 85.512 157.813 86.1947 155.21 86.28V83.272C158.282 83.1013 160.821 81.8853 162.826 79.624C164.874 77.3627 165.898 74.1413 165.898 69.96V31.56H169.034V70.152ZM180.623 54.344C180.623 51.144 181.221 48.1573 182.415 45.384C183.61 42.568 185.274 40.0933 187.407 37.96C189.541 35.784 191.994 34.0987 194.767 32.904C197.583 31.6667 200.591 31.048 203.791 31.048C206.991 31.048 209.999 31.6667 212.815 32.904C215.631 34.0987 218.106 35.784 220.239 37.96C222.373 40.0933 224.037 42.568 225.231 45.384C226.469 48.1573 227.087 51.144 227.087 54.344C227.087 57.544 226.469 60.552 225.231 63.368C224.037 66.1413 222.373 68.5947 220.239 70.728C218.106 72.8613 215.631 74.5253 212.815 75.72C209.999 76.9147 206.991 77.512 203.791 77.512C200.591 77.512 197.583 76.936 194.767 75.784C191.994 74.632 189.541 73.0107 187.407 70.92C185.274 68.8293 183.61 66.376 182.415 63.56C181.221 60.744 180.623 57.672 180.623 54.344ZM183.823 54.408C183.823 57.1813 184.335 59.784 185.359 62.216C186.383 64.648 187.813 66.7813 189.647 68.616C191.482 70.4507 193.594 71.9013 195.983 72.968C198.415 73.992 200.997 74.504 203.727 74.504C206.543 74.504 209.167 73.992 211.599 72.968C214.031 71.9013 216.165 70.4507 217.999 68.616C219.834 66.7813 221.263 64.648 222.287 62.216C223.354 59.784 223.887 57.16 223.887 54.344C223.887 51.5707 223.354 48.968 222.287 46.536C221.263 44.0613 219.834 41.9067 217.999 40.072C216.165 38.1947 214.031 36.7227 211.599 35.656C209.167 34.5893 206.565 34.056 203.791 34.056C200.975 34.056 198.351 34.6107 195.919 35.72C193.487 36.7867 191.354 38.2587 189.519 40.136C187.727 42.0133 186.319 44.1893 185.295 46.664C184.314 49.096 183.823 51.6773 183.823 54.408ZM249.059 31.56C250.766 31.56 252.451 31.816 254.115 32.328C255.822 32.7973 257.358 33.5653 258.723 34.632C260.131 35.656 261.262 36.9787 262.115 38.6C262.968 40.2213 263.395 42.1627 263.395 44.424C263.395 46.1307 263.139 47.7947 262.627 49.416C262.115 50.9947 261.283 52.424 260.131 53.704C258.979 54.984 257.486 56.008 255.651 56.776C253.816 57.544 251.555 57.928 248.867 57.928H241.827V77H238.691V31.56H249.059ZM248.675 54.92C250.936 54.92 252.814 54.6 254.307 53.96C255.8 53.32 256.974 52.488 257.827 51.464C258.68 50.44 259.278 49.3307 259.619 48.136C260.003 46.8987 260.195 45.704 260.195 44.552C260.195 43.1867 259.939 41.9067 259.427 40.712C258.958 39.5173 258.254 38.472 257.315 37.576C256.376 36.6373 255.246 35.912 253.923 35.4C252.6 34.8453 251.128 34.568 249.507 34.568H241.827V54.92H248.675ZM255.203 56.328L267.811 77H264.163L251.491 56.392L255.203 56.328ZM279.191 77V31.56H290.391C294.786 31.56 298.519 32.264 301.591 33.672C304.706 35.0373 307.223 36.8507 309.143 39.112C311.063 41.3733 312.471 43.848 313.367 46.536C314.263 49.224 314.711 51.8907 314.711 54.536C314.711 57.992 314.114 61.1067 312.919 63.88C311.724 66.6107 310.082 68.9573 307.991 70.92C305.943 72.8827 303.596 74.3973 300.951 75.464C298.306 76.488 295.511 77 292.567 77H279.191ZM282.327 73.992H291.735C294.466 73.992 297.026 73.544 299.415 72.648C301.804 71.752 303.895 70.4507 305.687 68.744C307.522 67.0373 308.951 64.9893 309.975 62.6C310.999 60.168 311.511 57.416 311.511 54.344C311.511 51.7413 311.063 49.2667 310.167 46.92C309.314 44.5307 308.012 42.4187 306.263 40.584C304.514 38.7493 302.359 37.2987 299.799 36.232C297.239 35.1653 294.252 34.632 290.839 34.632H282.327V73.992ZM326.316 31.56H351.788V34.568H329.452V53.32H349.228V56.264H329.452V77H326.316V31.56ZM363.316 31.56H391.348V34.568H366.452V52.616H388.852V55.624H366.452V73.992H392.244V77H363.316V31.56ZM404.191 31.56H432.223V34.568H407.327V52.616H429.727V55.624H407.327V73.992H433.119V77H404.191V31.56ZM445.066 77V31.56H456.266C460.661 31.56 464.394 32.264 467.466 33.672C470.581 35.0373 473.098 36.8507 475.018 39.112C476.938 41.3733 478.346 43.848 479.242 46.536C480.138 49.224 480.586 51.8907 480.586 54.536C480.586 57.992 479.989 61.1067 478.794 63.88C477.599 66.6107 475.957 68.9573 473.866 70.92C471.818 72.8827 469.471 74.3973 466.826 75.464C464.181 76.488 461.386 77 458.442 77H445.066ZM448.202 73.992H457.61C460.341 73.992 462.901 73.544 465.29 72.648C467.679 71.752 469.77 70.4507 471.562 68.744C473.397 67.0373 474.826 64.9893 475.85 62.6C476.874 60.168 477.386 57.416 477.386 54.344C477.386 51.7413 476.938 49.2667 476.042 46.92C475.189 44.5307 473.887 42.4187 472.138 40.584C470.389 38.7493 468.234 37.2987 465.674 36.232C463.114 35.1653 460.127 34.632 456.714 34.632H448.202V73.992Z" fill="#9CB42F"/>
<path fill-rule="evenodd" clip-rule="evenodd" d="M59.3539 28.387C56.7687 33.4397 55.6 41.2975 55.6 54.8V95.8C55.6 96.3523 55.1523 96.8 54.6 96.8C54.0477 96.8 53.6 96.3523 53.6 95.8V54.8V53.8C53.6 53.7762 53.6008 53.7526 53.6025 53.7293C53.6358 46.5788 54.0089 40.9329 54.8042 36.4056C54.7917 36.3892 54.7796 36.3722 54.7679 36.3547L51.6855 31.7311C51.4977 31.7762 51.3016 31.8 51.1 31.8C49.7193 31.8 48.6 30.6808 48.6 29.3C48.6 27.9193 49.7193 26.8 51.1 26.8C52.4807 26.8 53.6 27.9193 53.6 29.3C53.6 29.7433 53.4846 30.1597 53.2823 30.5207L55.3721 33.6554C55.9481 31.2631 56.6764 29.2294 57.5736 27.4758C60.1918 22.3589 64.1887 19.7346 69.6087 17.5104C69.6029 17.441 69.6 17.3709 69.6 17.3C69.6 15.9193 70.7193 14.8 72.1 14.8C73.4807 14.8 74.6 15.9193 74.6 17.3C74.6 18.6808 73.4807 19.8 72.1 19.8C71.5239 19.8 70.9933 19.6052 70.5706 19.2778C65.2432 21.4401 61.691 23.8193 59.3539 28.387ZM24.6003 33.7918C25.483 33.4059 26.0998 32.525 26.0998 31.5C26.0998 30.1193 24.9805 29 23.5998 29C22.2191 29 21.0998 30.1193 21.0998 31.5C21.0998 32.5253 21.7171 33.4065 22.6003 33.7922V36.2627C20.9687 34.4941 19.7025 32.7316 18.8731 31.2627C19.3226 30.8107 19.6003 30.1878 19.6003 29.5C19.6003 28.1193 18.481 27 17.1003 27C15.7196 27 14.6003 28.1193 14.6003 29.5C14.6003 30.8449 15.6623 31.9418 16.9935 31.9978C18.3971 34.5704 20.9918 37.8983 24.4439 40.7688C27.9526 43.6863 32.4159 46.1856 37.4957 46.8909C37.5721 49.0816 37.6 51.374 37.6002 53.7812L37.6 53.8V63.7279L27.4183 53.2376C27.5355 52.9481 27.6 52.6316 27.6 52.3C27.6 50.9193 26.4807 49.8 25.1 49.8C23.7193 49.8 22.6 50.9193 22.6 52.3C22.6 53.6808 23.7193 54.8 25.1 54.8C25.4133 54.8 25.7132 54.7424 25.9895 54.6372L37.5001 66.4965C37.5318 66.5292 37.5652 66.5592 37.6 66.5866V73.0897L32.8428 68.7765C32.9449 68.5038 33.0008 68.2084 33.0008 67.9C33.0008 66.5192 31.8815 65.4 30.5008 65.4C29.1201 65.4 28.0008 66.5192 28.0008 67.9C28.0008 69.2807 29.1201 70.4 30.5008 70.4C30.8368 70.4 31.1574 70.3337 31.4501 70.2134L37.5465 75.7408C37.5639 75.7567 37.5818 75.7717 37.6 75.7861V87.8C37.6 88.3523 38.0477 88.8 38.6 88.8C39.1523 88.8 39.6 88.3523 39.6 87.8V53.819L39.6002 53.8C39.6002 51.0848 39.5627 48.4969 39.4615 46.0237C39.4627 45.9764 39.461 45.9299 39.4556 45.884C39.373 43.9186 39.2504 42.0258 39.065 40.1995C38.9778 39.34 38.8779 38.4943 38.7623 37.6624C37.4619 28.3054 34.2563 20.7112 26.7219 13.8294C26.837 13.5421 26.9003 13.2285 26.9003 12.9001C26.9003 11.5194 25.781 10.4001 24.4003 10.4001C23.0196 10.4001 21.9003 11.5194 21.9003 12.9001C21.9003 14.2809 23.0196 15.4001 24.4003 15.4001C24.7158 15.4001 25.0176 15.3417 25.2956 15.2351C26.8494 16.6474 28.2095 18.0888 29.3997 19.5716C27.6958 19.8623 25.8304 19.4674 24.1537 18.8069C23.1862 18.4257 22.3341 17.9772 21.6722 17.5746C21.6906 17.4524 21.7001 17.3273 21.7001 17.2001C21.7001 15.8194 20.5808 14.7001 19.2001 14.7001C17.8194 14.7001 16.7001 15.8194 16.7001 17.2001C16.7001 18.5808 17.8194 19.7001 19.2001 19.7001C19.7216 19.7001 20.2059 19.5404 20.6066 19.2672C21.3884 19.7448 22.3565 20.2488 23.4213 20.6682C25.516 21.4933 28.1925 22.0747 30.7079 21.3145C34.1507 26.2313 35.9046 31.633 36.7808 37.9377C36.8928 38.7432 36.9908 39.5638 37.0758 40.4006C37.2217 41.838 37.3278 43.3217 37.4068 44.8557C35.3646 44.5321 33.4192 43.8883 31.5999 43.0272C31.6001 43.0211 31.6002 43.0149 31.6003 43.0088C31.6003 43.0059 31.6003 43.0029 31.6003 43V38.7921C32.4835 38.4065 33.1007 37.5253 33.1007 36.5C33.1007 35.1193 31.9814 34 30.6007 34C29.22 34 28.1007 35.1193 28.1007 36.5C28.1007 37.525 28.7175 38.4059 29.6003 38.7918V41.9677C28.2135 41.1535 26.9158 40.2232 25.7222 39.2307C25.3269 38.902 24.944 38.5673 24.574 38.2287C24.5912 38.1553 24.6003 38.0787 24.6003 38V33.7918ZM45.6 53.8V53.7961C45.5999 48.8879 45.4877 43.9608 45.0756 39.9006C44.565 34.8703 43.9196 29.8126 42.5082 25.0862C40.9708 19.9377 38.5339 15.2178 34.3978 11.3951C34.0421 11.5895 33.634 11.7001 33.2001 11.7001C31.8194 11.7001 30.7001 10.5808 30.7001 9.20007C30.7001 7.81936 31.8194 6.70007 33.2001 6.70007C34.5808 6.70007 35.7001 7.81936 35.7001 9.20007C35.7001 9.4094 35.6744 9.61271 35.6259 9.80702C39.8737 13.684 42.4458 18.404 44.0912 23.4475C44.3771 23.3261 44.6609 23.2059 44.9427 23.0865C46.1641 22.5691 47.3471 22.068 48.4916 21.5579C49.0893 19.6828 48.7563 17.2649 48.101 15.0178C47.6126 13.3433 46.9808 11.879 46.5701 10.9998C45.2029 10.9841 44.0995 9.87089 44.0995 8.5C44.0995 7.11929 45.2188 6 46.5995 6C47.9802 6 49.0995 7.11929 49.0995 8.5C49.0995 9.16649 48.8387 9.77206 48.4136 10.2202C48.8517 11.1638 49.508 12.6988 50.0209 14.4573C50.5506 16.2734 50.9638 18.4552 50.7387 20.5071C51.6475 20.0559 52.4995 19.5944 53.2865 19.1096C54.0144 17.1427 54.1174 15.1826 53.9711 13.5696C53.9071 12.8646 53.7971 12.2392 53.677 11.7217C52.5978 11.4448 51.8002 10.4656 51.8002 9.30005C51.8002 7.91934 52.9195 6.80005 54.3002 6.80005C55.6809 6.80005 56.8002 7.91934 56.8002 9.30005C56.8002 10.1813 56.3442 10.956 55.6554 11.4012C55.7855 11.9868 55.897 12.6581 55.9633 13.3889C56.0668 14.5305 56.061 15.845 55.8354 17.2346C57.3098 15.9019 58.3576 14.3521 58.8652 12.4142C58.165 11.9712 57.7001 11.1899 57.7001 10.3C57.7001 8.91934 58.8194 7.80005 60.2001 7.80005C61.5808 7.80005 62.7001 8.91934 62.7001 10.3C62.7001 11.455 61.9169 12.427 60.8527 12.714C59.5534 18.0898 54.9164 20.8536 49.6986 23.2112C48.4688 23.7669 47.1727 24.3152 45.86 24.8705C45.4649 25.0376 45.068 25.2055 44.6713 25.3743C45.969 30.0411 46.5835 34.9483 47.0658 39.6995C47.4886 43.8649 47.6 48.8754 47.6 53.8V53.804V95.8C47.6 96.3523 47.1523 96.8 46.6 96.8C46.0477 96.8 45.6 96.3523 45.6 95.8V53.8ZM61.6 53.8C61.6 53.7893 61.6002 53.7786 61.6005 53.7679C61.6006 53.6927 61.601 53.6175 61.6017 53.5422C61.6001 53.506 61.6005 53.47 61.6028 53.4343C61.655 49.3598 62.5779 45.0528 64.375 40.9999L61.9622 38.6474C61.6934 38.7461 61.403 38.8 61.1 38.8C59.7193 38.8 58.6 37.6808 58.6 36.3C58.6 34.9193 59.7193 33.8 61.1 33.8C62.4807 33.8 63.6 34.9193 63.6 36.3C63.6 36.6415 63.5315 36.9669 63.4076 37.2634L65.2919 39.1006C65.8623 38.0108 66.499 36.9461 67.2021 35.9165L64.8894 33.6038C64.6704 33.6665 64.4392 33.7001 64.2001 33.7001C62.8194 33.7001 61.7001 32.5808 61.7001 31.2001C61.7001 29.8194 62.8194 28.7001 64.2001 28.7001C65.5808 28.7001 66.7001 29.8194 66.7001 31.2001C66.7001 31.6032 66.6047 31.984 66.4352 32.3213L68.3972 34.2833C69.0353 33.4689 69.7183 32.6821 70.4464 31.9286L68.7798 29.7065C68.5637 29.7674 68.3356 29.8 68.1 29.8C66.7193 29.8 65.6 28.6808 65.6 27.3C65.6 25.9193 66.7193 24.8 68.1 24.8C69.4807 24.8 70.6 25.9193 70.6 27.3C70.6 27.7093 70.5017 28.0956 70.3273 28.4365L71.8958 30.5278C72.0778 30.3636 72.2623 30.2014 72.4491 30.0413C72.5182 29.982 72.5931 29.9338 72.6716 29.8966C72.6248 29.7054 72.6 29.5056 72.6 29.3C72.6 27.9193 73.7193 26.8 75.1 26.8C76.4807 26.8 77.6 27.9193 77.6 29.3C77.6 30.6808 76.4807 31.8 75.1 31.8C74.6436 31.8 74.2157 31.6777 73.8474 31.4641C73.8178 31.4974 73.7856 31.529 73.7509 31.5588C67.4756 36.9376 64.1023 44.8343 63.6524 52.1288C66.4996 51.1029 70.5346 48.8542 74.2694 46.1865C75.1475 45.5593 76.0025 44.9135 76.815 44.2608C75.7173 42.2066 74.9641 39.7117 75.9076 37.1268C75.3536 36.6683 75.0006 35.9754 75.0006 35.2C75.0006 33.8193 76.1199 32.7 77.5006 32.7C78.8813 32.7 80.0006 33.8193 80.0006 35.2C80.0006 36.4651 79.0609 37.5107 77.8413 37.677C77.1459 39.449 77.5312 41.2226 78.3848 42.9434C78.9719 42.4272 79.5248 41.9117 80.0341 41.4023C81.2011 40.2353 82.0942 39.1451 82.6593 38.191C82.2503 37.7459 82.0006 37.1521 82.0006 36.5C82.0006 35.1193 83.1199 34 84.5006 34C85.8813 34 87.0006 35.1193 87.0006 36.5C87.0006 37.8807 85.8813 39 84.5006 39C83.8008 40.248 82.7169 41.5476 81.4481 42.8164C79.7582 44.5063 77.6501 46.2288 75.4315 47.8135C71.3618 50.7204 66.7851 53.258 63.6 54.2554V61.7096L74.6506 52.8028C74.6174 52.6404 74.6 52.4722 74.6 52.3C74.6 50.9193 75.7193 49.8 77.1 49.8C78.4807 49.8 79.6 50.9193 79.6 52.3C79.6 53.6808 78.4807 54.8 77.1 54.8C76.6266 54.8 76.1839 54.6685 75.8065 54.4398L63.6 64.2784V70.496L73.7978 62.2764C73.6705 61.9764 73.6 61.6465 73.6 61.3C73.6 59.9193 74.7193 58.8 76.1 58.8C77.4807 58.8 78.6 59.9193 78.6 61.3C78.6 62.6808 77.4807 63.8 76.1 63.8C75.8089 63.8 75.5295 63.7503 75.2697 63.6589L63.6 73.0647V78.7098L66.7087 76.2299C66.6383 75.999 66.6005 75.7539 66.6005 75.5C66.6005 74.1193 67.7198 73 69.1005 73C70.4812 73 71.6005 74.1193 71.6005 75.5C71.6005 76.8807 70.4812 78 69.1005 78C68.7095 78 68.3395 77.9103 68.01 77.7503L63.6 81.2682V87.8C63.6 88.3523 63.1523 88.8 62.6 88.8C62.0477 88.8 61.6 88.3523 61.6 87.8V72.5951V72.5789V63.8087V63.7926V53.8ZM49.5 99C76.8381 99 99 76.8381 99 49.5C99 22.1619 76.8381 0 49.5 0C22.1619 0 0 22.1619 0 49.5C0 76.8381 22.1619 99 49.5 99Z" fill="#9CB42F"/>
</svg>
