<svg width="87" height="123" viewBox="0 0 87 123" fill="none" xmlns="http://www.w3.org/2000/svg">
<path d="M48.34 120.215C48.34 120.215 48.34 84.3782 48.34 46.8207M48.34 46.8207C48.34 41.7724 48.34 37.7541 48.34 33.8091C48.34 24.315 52.1116 15.2098 58.825 8.49641V8.49641M48.34 46.8207C42.8335 41.3141 37.8551 36.1549 37.8551 36.1549M37.4935 120.215V60.626C37.4935 51.7866 33.9821 43.3092 27.7317 37.0588V37.0588M10.7389 20.066L23.7547 33.0818L27.7317 37.0588M50.1478 5.78479L42.9168 12.6542M42.9168 12.6542L36.5897 6.14634M42.9168 12.6542L36.7704 18.439M26.6471 110.453V86.7719M6.58105 30.5509L13.8643 37.8342C22.049 46.0188 26.6471 57.1196 26.6471 68.6944V68.6944M26.6471 68.6944L9.1119 51.1593M26.6471 68.6944V86.7719M26.6471 86.7719L19.9584 80.0832M58.4634 110.634V86.7719M79.9756 29.4663L68.2252 41.2166M58.4634 68.6944V56.7526C58.4634 52.824 60.024 49.0563 62.802 46.2783V46.2783M58.4634 68.6944L80.6987 46.8207M58.4634 68.6944V86.7719M58.4634 86.7719L74.3716 71.2252M62.802 46.2783L56.2941 39.4089M62.802 46.2783L68.2252 41.2166M68.2252 41.2166L68.1057 39.9015C67.9461 38.1455 67.4281 36.441 66.5838 34.8931V34.8931C65.9939 33.8117 65.2521 32.8203 64.381 31.9492L62.9828 30.5509M58.4634 26.0316L62.9828 30.5509M62.9828 30.5509L74.3716 19.1621M27.7317 37.0588V37.0588C27.9659 31.5546 30.0423 26.2885 33.6276 22.1056L36.7704 18.439M36.7704 18.439L29.901 11.9311" stroke="#9CB42F" stroke-width="2.8924" stroke-linecap="round"/>
<g>
<path d="M11.7539 17.7461C11.7539 19.5432 10.2971 21 8.5 21C6.7029 21 5.24605 19.5432 5.24605 17.7461C5.24605 15.949 6.7029 14.4921 8.5 14.4921C10.2971 14.4921 11.7539 15.949 11.7539 17.7461ZM6.87303 17.7461C6.87303 18.6446 7.60145 19.373 8.5 19.373C9.39855 19.373 10.127 18.6446 10.127 17.7461C10.127 16.8475 9.39855 16.1191 8.5 16.1191C7.60145 16.1191 6.87303 16.8475 6.87303 17.7461Z" />
<path d="M31.0079 9.5C31.0079 11.2971 29.551 12.7539 27.7539 12.7539C25.9568 12.7539 24.5 11.2971 24.5 9.5C24.5 7.7029 25.9568 6.24605 27.7539 6.24605C29.551 6.24605 31.0079 7.7029 31.0079 9.5ZM26.127 9.5C26.127 10.3986 26.8554 11.127 27.7539 11.127C28.6525 11.127 29.3809 10.3986 29.3809 9.5C29.3809 8.60145 28.6525 7.87303 27.7539 7.87303C26.8554 7.87303 26.127 8.60145 26.127 9.5Z" fill="#9CB42F"/>
<path d="M64.5079 6.25395C64.5079 8.05105 63.051 9.50789 61.2539 9.50789C59.4568 9.50789 58 8.05105 58 6.25395C58 4.45684 59.4568 3 61.2539 3C63.051 3 64.5079 4.45684 64.5079 6.25395ZM59.627 6.25395C59.627 7.1525 60.3554 7.88092 61.2539 7.88092C62.1525 7.88092 62.8809 7.1525 62.8809 6.25395C62.8809 5.35539 62.1525 4.62697 61.2539 4.62697C60.3554 4.62697 59.627 5.35539 59.627 6.25395Z" fill="#9CB42F"/>
<path d="M79.8082 16.854C79.8082 18.6511 78.3513 20.108 76.5542 20.108C74.7571 20.108 73.3003 18.6511 73.3003 16.854C73.3003 15.0569 74.7571 13.6001 76.5542 13.6001C78.3513 13.6001 79.8082 15.0569 79.8082 16.854ZM74.9273 16.854C74.9273 17.7526 75.6557 18.481 76.5542 18.481C77.4528 18.481 78.1812 17.7526 78.1812 16.854C78.1812 15.9555 77.4528 15.2271 76.5542 15.2271C75.6557 15.2271 74.9273 15.9555 74.9273 16.854Z" fill="#9CB42F"/>
<path d="M85.5079 27.2539C85.5079 29.051 84.051 30.5079 82.2539 30.5079C80.4568 30.5079 79 29.051 79 27.2539C79 25.4568 80.4568 24 82.2539 24C84.051 24 85.5079 25.4568 85.5079 27.2539ZM80.627 27.2539C80.627 28.1525 81.3554 28.8809 82.2539 28.8809C83.1525 28.8809 83.8809 28.1525 83.8809 27.2539C83.8809 26.3554 83.1525 25.627 82.2539 25.627C81.3554 25.627 80.627 26.3554 80.627 27.2539Z" fill="#9CB42F"/>
<path d="M86.1637 44.6705C86.1637 46.4676 84.7068 47.9245 82.9097 47.9245C81.1126 47.9245 79.6558 46.4676 79.6558 44.6705C79.6558 42.8734 81.1126 41.4166 82.9097 41.4166C84.7068 41.4166 86.1637 42.8734 86.1637 44.6705ZM81.2827 44.6705C81.2827 45.5691 82.0112 46.2975 82.9097 46.2975C83.8083 46.2975 84.5367 45.5691 84.5367 44.6705C84.5367 43.772 83.8083 43.0435 82.9097 43.0435C82.0112 43.0435 81.2827 43.772 81.2827 44.6705Z" fill="#9CB42F"/>
<path d="M59.6163 23.6697C59.6163 25.4668 58.1594 26.9237 56.3623 26.9237C54.5652 26.9237 53.1084 25.4668 53.1084 23.6697C53.1084 21.8726 54.5652 20.4158 56.3623 20.4158C58.1594 20.4158 59.6163 21.8726 59.6163 23.6697ZM54.7354 23.6697C54.7354 24.5683 55.4638 25.2967 56.3623 25.2967C57.2609 25.2967 57.9893 24.5683 57.9893 23.6697C57.9893 22.7712 57.2609 22.0427 56.3623 22.0427C55.4638 22.0427 54.7354 22.7712 54.7354 23.6697Z" fill="#9CB42F"/>
<path d="M57.627 37C57.627 38.7971 56.1701 40.2539 54.373 40.2539C52.5759 40.2539 51.1191 38.7971 51.1191 37C51.1191 35.2029 52.5759 33.7461 54.373 33.7461C56.1701 33.7461 57.627 35.2029 57.627 37ZM52.7461 37C52.7461 37.8986 53.4745 38.627 54.373 38.627C55.2716 38.627 56 37.8986 56 37C56 36.1014 55.2716 35.373 54.373 35.373C53.4745 35.373 52.7461 36.1014 52.7461 37Z" fill="#9CB42F"/>
<path d="M79.9083 68.954C79.9083 70.7511 78.4514 72.208 76.6543 72.208C74.8572 72.208 73.4004 70.7511 73.4004 68.954C73.4004 67.1569 74.8572 65.7001 76.6543 65.7001C78.4514 65.7001 79.9083 67.1569 79.9083 68.954ZM75.0274 68.954C75.0274 69.8526 75.7558 70.581 76.6543 70.581C77.5529 70.581 78.2813 69.8526 78.2813 68.954C78.2813 68.0555 77.5529 67.327 76.6543 67.327C75.7558 67.327 75.0274 68.0555 75.0274 68.954Z" fill="#9CB42F"/>
<path d="M38.9395 33.6241C38.9395 35.4212 37.4827 36.8781 35.6856 36.8781C33.8885 36.8781 32.4316 35.4212 32.4316 33.6241C32.4316 31.827 33.8885 30.3702 35.6856 30.3702C37.4827 30.3702 38.9395 31.827 38.9395 33.6241ZM34.0586 33.6241C34.0586 34.5227 34.787 35.2511 35.6856 35.2511C36.5841 35.2511 37.3126 34.5227 37.3126 33.6241C37.3126 32.7256 36.5841 31.9972 35.6856 31.9972C34.787 31.9972 34.0586 32.7256 34.0586 33.6241Z" fill="#9CB42F"/>
<path d="M7.75398 28.2539C7.75398 30.051 6.29714 31.5079 4.50004 31.5079C2.70293 31.5079 1.24609 30.051 1.24609 28.2539C1.24609 26.4568 2.70293 25 4.50004 25C6.29714 25 7.75398 26.4568 7.75398 28.2539ZM2.87307 28.2539C2.87307 29.1525 3.60149 29.8809 4.50004 29.8809C5.39859 29.8809 6.12701 29.1525 6.12701 28.2539C6.12701 27.3554 5.39859 26.627 4.50004 26.627C3.60149 26.627 2.87307 27.3554 2.87307 28.2539Z" fill="#9CB42F"/>
<path d="M10.254 48.7461C10.254 50.5432 8.79714 52 7.00004 52C5.20293 52 3.74609 50.5432 3.74609 48.7461C3.74609 46.949 5.20293 45.4921 7.00004 45.4921C8.79714 45.4921 10.254 46.949 10.254 48.7461ZM5.37307 48.7461C5.37307 49.6446 6.10149 50.373 7.00004 50.373C7.89859 50.373 8.62701 49.6446 8.62701 48.7461C8.62701 47.8475 7.89859 47.1191 7.00004 47.1191C6.10149 47.1191 5.37307 47.8475 5.37307 48.7461Z" fill="#9CB42F"/>
<path d="M21.1627 77.6332C21.1627 79.4303 19.7058 80.8871 17.9087 80.8871C16.1116 80.8871 14.6548 79.4303 14.6548 77.6332C14.6548 75.8361 16.1116 74.3792 17.9087 74.3792C19.7058 74.3792 21.1627 75.8361 21.1627 77.6332ZM16.2818 77.6332C16.2818 78.5317 17.0102 79.2601 17.9087 79.2601C18.8073 79.2601 19.5357 78.5317 19.5357 77.6332C19.5357 76.7346 18.8073 76.0062 17.9087 76.0062C17.0102 76.0062 16.2818 76.7346 16.2818 77.6332Z" fill="#9CB42F"/>
<path d="M37.8809 3.75395C37.8809 5.55105 36.4241 7.00789 34.627 7.00789C32.8299 7.00789 31.373 5.55105 31.373 3.75395C31.373 1.95684 32.8299 0.5 34.627 0.5C36.4241 0.5 37.8809 1.95684 37.8809 3.75395ZM33 3.75395C33 4.6525 33.7284 5.38092 34.627 5.38092C35.5255 5.38092 36.2539 4.6525 36.2539 3.75395C36.2539 2.85539 35.5255 2.12697 34.627 2.12697C33.7284 2.12697 33 2.85539 33 3.75395Z" fill="#9CB42F"/>
<path d="M55.7081 3.75407C55.7081 5.55117 54.2512 7.00801 52.4541 7.00801C50.657 7.00801 49.2002 5.55117 49.2002 3.75407C49.2002 1.95696 50.657 0.500122 52.4541 0.500122C54.2512 0.500122 55.7081 1.95696 55.7081 3.75407ZM50.8272 3.75407C50.8272 4.65262 51.5556 5.38104 52.4541 5.38104C53.3527 5.38104 54.0811 4.65262 54.0811 3.75407C54.0811 2.85552 53.3527 2.12709 52.4541 2.12709C51.5556 2.12709 50.8272 2.85552 50.8272 3.75407Z" fill="#9CB42F"/>
</g>
</svg>
