<svg width="516" height="111" viewBox="0 0 516 111" fill="none" xmlns="http://www.w3.org/2000/svg">
<path d="M166.903 86.632L113.143 26.056L114.391 25.096L114.487 85H109.879V15.4H110.167L163.927 76.456L162.679 76.84L162.583 16.84H167.095V86.632H166.903Z" fill="#9CB42F"/>
<path d="M191.919 80.152C191.919 83.5227 191.301 86.4027 190.063 88.792C188.826 91.1813 187.162 92.9947 185.071 94.232C183.023 95.512 180.698 96.1947 178.095 96.28V93.272C181.167 93.1013 183.706 91.8853 185.711 89.624C187.759 87.3627 188.783 84.1413 188.783 79.96V41.56H191.919V80.152ZM203.508 64.344C203.508 61.144 204.106 58.1573 205.3 55.384C206.495 52.568 208.159 50.0933 210.292 47.96C212.426 45.784 214.879 44.0987 217.652 42.904C220.468 41.6667 223.476 41.048 226.676 41.048C229.876 41.048 232.884 41.6667 235.7 42.904C238.516 44.0987 240.991 45.784 243.124 47.96C245.258 50.0933 246.922 52.568 248.116 55.384C249.354 58.1573 249.972 61.144 249.972 64.344C249.972 67.544 249.354 70.552 248.116 73.368C246.922 76.1413 245.258 78.5947 243.124 80.728C240.991 82.8613 238.516 84.5253 235.7 85.72C232.884 86.9147 229.876 87.512 226.676 87.512C223.476 87.512 220.468 86.936 217.652 85.784C214.879 84.632 212.426 83.0107 210.292 80.92C208.159 78.8293 206.495 76.376 205.3 73.56C204.106 70.744 203.508 67.672 203.508 64.344ZM206.708 64.408C206.708 67.1813 207.22 69.784 208.244 72.216C209.268 74.648 210.698 76.7813 212.532 78.616C214.367 80.4507 216.479 81.9013 218.868 82.968C221.3 83.992 223.882 84.504 226.612 84.504C229.428 84.504 232.052 83.992 234.484 82.968C236.916 81.9013 239.05 80.4507 240.884 78.616C242.719 76.7813 244.148 74.648 245.172 72.216C246.239 69.784 246.772 67.16 246.772 64.344C246.772 61.5707 246.239 58.968 245.172 56.536C244.148 54.0613 242.719 51.9067 240.884 50.072C239.05 48.1947 236.916 46.7227 234.484 45.656C232.052 44.5893 229.45 44.056 226.676 44.056C223.86 44.056 221.236 44.6107 218.804 45.72C216.372 46.7867 214.239 48.2587 212.404 50.136C210.612 52.0133 209.204 54.1893 208.18 56.664C207.199 59.096 206.708 61.6773 206.708 64.408ZM271.944 41.56C273.65 41.56 275.336 41.816 277 42.328C278.706 42.7973 280.242 43.5653 281.608 44.632C283.016 45.656 284.146 46.9787 285 48.6C285.853 50.2213 286.28 52.1627 286.28 54.424C286.28 56.1307 286.024 57.7947 285.512 59.416C285 60.9947 284.168 62.424 283.016 63.704C281.864 64.984 280.37 66.008 278.536 66.776C276.701 67.544 274.44 67.928 271.752 67.928H264.712V87H261.576V41.56H271.944ZM271.56 64.92C273.821 64.92 275.698 64.6 277.192 63.96C278.685 63.32 279.858 62.488 280.712 61.464C281.565 60.44 282.162 59.3307 282.504 58.136C282.888 56.8987 283.08 55.704 283.08 54.552C283.08 53.1867 282.824 51.9067 282.312 50.712C281.842 49.5173 281.138 48.472 280.2 47.576C279.261 46.6373 278.13 45.912 276.808 45.4C275.485 44.8453 274.013 44.568 272.392 44.568H264.712V64.92H271.56ZM278.088 66.328L290.696 87H287.048L274.376 66.392L278.088 66.328ZM302.076 87V41.56H313.276C317.67 41.56 321.404 42.264 324.476 43.672C327.59 45.0373 330.108 46.8507 332.028 49.112C333.948 51.3733 335.356 53.848 336.252 56.536C337.148 59.224 337.596 61.8907 337.596 64.536C337.596 67.992 336.998 71.1067 335.804 73.88C334.609 76.6107 332.966 78.9573 330.876 80.92C328.828 82.8827 326.481 84.3973 323.836 85.464C321.19 86.488 318.396 87 315.452 87H302.076ZM305.212 83.992H314.62C317.35 83.992 319.91 83.544 322.3 82.648C324.689 81.752 326.78 80.4507 328.572 78.744C330.406 77.0373 331.836 74.9893 332.86 72.6C333.884 70.168 334.396 67.416 334.396 64.344C334.396 61.7413 333.948 59.2667 333.052 56.92C332.198 54.5307 330.897 52.4187 329.148 50.584C327.398 48.7493 325.244 47.2987 322.684 46.232C320.124 45.1653 317.137 44.632 313.724 44.632H305.212V83.992Z" fill="#9CB42F"/>
<path d="M349.098 18.84H387.306V23.352H353.802V51.48H383.466V55.896H353.802V87H349.098V18.84Z" fill="#9CB42F"/>
<path d="M394.295 38.56H422.326V41.568H397.431V59.616H419.831V62.624H397.431V80.992H423.222V84H394.295V38.56ZM435.17 38.56H463.201V41.568H438.306V59.616H460.706V62.624H438.306V80.992H464.097V84H435.17V38.56ZM476.045 84V38.56H487.245C491.639 38.56 495.373 39.264 498.445 40.672C501.559 42.0373 504.077 43.8507 505.997 46.112C507.917 48.3733 509.325 50.848 510.221 53.536C511.117 56.224 511.565 58.8907 511.565 61.536C511.565 64.992 510.967 68.1067 509.773 70.88C508.578 73.6107 506.935 75.9573 504.845 77.92C502.797 79.8827 500.45 81.3973 497.805 82.464C495.159 83.488 492.365 84 489.421 84H476.045ZM479.181 80.992H488.589C491.319 80.992 493.879 80.544 496.269 79.648C498.658 78.752 500.749 77.4507 502.541 75.744C504.375 74.0373 505.805 71.9893 506.829 69.6C507.853 67.168 508.365 64.416 508.365 61.344C508.365 58.7413 507.917 56.2667 507.021 53.92C506.167 51.5307 504.866 49.4187 503.117 47.584C501.367 45.7493 499.213 44.2987 496.653 43.232C494.093 42.1653 491.106 41.632 487.693 41.632H479.181V80.992Z" fill="#9CB42F"/>
<path fill-rule="evenodd" clip-rule="evenodd" d="M53.6 95.8C53.6 96.3523 54.0477 96.8 54.6 96.8C55.1523 96.8 55.6 96.3523 55.6 95.8V54.8C55.6 41.2972 56.7686 33.4392 59.3539 28.3865C61.691 23.8188 65.2432 21.4401 70.5707 19.2779C70.9934 19.6052 71.5239 19.8 72.1 19.8C73.4807 19.8 74.6 18.6808 74.6 17.3C74.6 15.9193 73.4807 14.8 72.1 14.8C70.7193 14.8 69.6 15.9193 69.6 17.3C69.6 17.3708 69.6029 17.4409 69.6087 17.5102C64.1887 19.7345 60.1916 22.3585 57.5734 27.4755C56.6761 29.2291 55.9479 31.2628 55.3719 33.6551L53.2823 30.5207C53.4846 30.1597 53.6 29.7433 53.6 29.3C53.6 27.9193 52.4807 26.8 51.1 26.8C49.7193 26.8 48.6 27.9193 48.6 29.3C48.6 30.6808 49.7193 31.8 51.1 31.8C51.3016 31.8 51.4977 31.7762 51.6855 31.7311L54.7679 36.3547C54.7795 36.3721 54.7916 36.389 54.804 36.4054C54.0088 40.9327 53.6358 46.5788 53.6025 53.7293C53.6008 53.7526 53.6 53.7763 53.6 53.8V54.8V95.8ZM24.574 38.2289C24.5912 38.1554 24.6003 38.0788 24.6003 38V33.7918C25.483 33.4059 26.0998 32.525 26.0998 31.5C26.0998 30.1193 24.9805 29 23.5998 29C22.2191 29 21.0998 30.1193 21.0998 31.5C21.0998 32.5253 21.7171 33.4065 22.6003 33.7922V36.263C20.9686 34.4942 19.7025 32.7317 18.8731 31.2627C19.3226 30.8107 19.6003 30.1878 19.6003 29.5C19.6003 28.1193 18.481 27 17.1003 27C15.7196 27 14.6003 28.1193 14.6003 29.5C14.6003 30.845 15.6625 31.942 16.9938 31.9978C18.3973 34.5704 20.9916 37.8984 24.4437 40.7689C27.9526 43.6867 32.4161 46.1878 37.4963 46.8929C37.5729 49.0887 37.6 51.3867 37.6 53.8V63.7279L27.4183 53.2376C27.5355 52.9481 27.6 52.6316 27.6 52.3C27.6 50.9193 26.4807 49.8 25.1 49.8C23.7193 49.8 22.6 50.9193 22.6 52.3C22.6 53.6808 23.7193 54.8 25.1 54.8C25.4133 54.8 25.7132 54.7424 25.9895 54.6372L37.5001 66.4965C37.5318 66.5292 37.5652 66.5592 37.6 66.5866V73.0897L32.8428 68.7765C32.9449 68.5038 33.0008 68.2084 33.0008 67.9C33.0008 66.5192 31.8815 65.4 30.5008 65.4C29.1201 65.4 28.0008 66.5192 28.0008 67.9C28.0008 69.2807 29.1201 70.4 30.5008 70.4C30.8368 70.4 31.1574 70.3337 31.4501 70.2134L37.5465 75.7408C37.5639 75.7567 37.5818 75.7717 37.6 75.7861L37.6 87.8C37.6 88.3523 38.0477 88.8 38.6 88.8C39.1523 88.8 39.6 88.3523 39.6 87.8L39.6 53.8C39.6 51.0664 39.5656 48.4616 39.4627 45.9733C39.4625 45.9654 39.4623 45.9576 39.4619 45.9499C39.4617 45.947 39.4616 45.9442 39.4614 45.9414C39.3789 43.9553 39.2526 42.0433 39.0654 40.1991C38.9782 39.3396 38.8776 38.4943 38.762 37.6624C37.4616 28.3053 34.2566 20.711 26.722 13.829C26.837 13.5419 26.9003 13.2284 26.9003 12.9001C26.9003 11.5194 25.781 10.4001 24.4003 10.4001C23.0196 10.4001 21.9003 11.5194 21.9003 12.9001C21.9003 14.2809 23.0196 15.4001 24.4003 15.4001C24.7158 15.4001 25.0177 15.3417 25.2957 15.235C26.8494 16.6473 28.2095 18.0886 29.3996 19.5713C27.6958 19.8621 25.8307 19.4677 24.154 18.8071C23.1864 18.426 22.3342 17.9773 21.6722 17.5746C21.6906 17.4524 21.7001 17.3274 21.7001 17.2001C21.7001 15.8194 20.5808 14.7001 19.2001 14.7001C17.8194 14.7001 16.7001 15.8194 16.7001 17.2001C16.7001 18.5808 17.8194 19.7001 19.2001 19.7001C19.7216 19.7001 20.2058 19.5404 20.6065 19.2672C21.3883 19.7447 22.3563 20.2485 23.421 20.668C25.5159 21.4932 28.1926 22.0753 30.7083 21.3148C34.151 26.2315 35.9049 31.633 36.7811 37.9377C36.893 38.7433 36.9907 39.5641 37.0756 40.401C37.2216 41.8391 37.3299 43.3232 37.409 44.8581C35.3659 44.5346 33.4198 43.8903 31.5999 43.0285C31.6 43.0235 31.6001 43.0185 31.6002 43.0134C31.6003 43.009 31.6003 43.0045 31.6003 43V38.7921C32.4835 38.4065 33.1007 37.5253 33.1007 36.5C33.1007 35.1193 31.9814 34 30.6007 34C29.22 34 28.1007 35.1193 28.1007 36.5C28.1007 37.525 28.7175 38.4059 29.6003 38.7918V41.9686C28.2136 41.1541 26.9159 40.2235 25.7224 39.2311C25.327 38.9023 24.944 38.5676 24.574 38.2289ZM46.6 96.8C46.0477 96.8 45.6 96.3523 45.6 95.8V53.8L45.6 53.7961C45.5999 48.8879 45.4878 43.9612 45.0756 39.901C44.565 34.8706 43.9201 29.8128 42.5087 25.0862C40.9712 19.9376 38.5342 15.2178 34.3979 11.395C34.0422 11.5895 33.6341 11.7001 33.2001 11.7001C31.8194 11.7001 30.7001 10.5808 30.7001 9.20007C30.7001 7.81936 31.8194 6.70007 33.2001 6.70007C34.5808 6.70007 35.7001 7.81936 35.7001 9.20007C35.7001 9.40946 35.6744 9.61283 35.6259 9.8072C39.8733 13.6838 42.4461 18.4028 44.0915 23.4457C44.4591 23.2896 44.8233 23.1357 45.1842 22.9833L45.1843 22.9832C46.3202 22.5033 47.4227 22.0374 48.4911 21.5612C49.0902 19.6856 48.7567 17.266 48.1009 15.0175C47.6125 13.3431 46.9809 11.879 46.5702 10.9998C45.203 10.9841 44.0995 9.87093 44.0995 8.5C44.0995 7.11929 45.2188 6 46.5995 6C47.9802 6 49.0995 7.11929 49.0995 8.5C49.0995 9.16653 48.8387 9.77213 48.4135 10.2203C48.8516 11.1639 49.508 12.699 50.0209 14.4576C50.5507 16.2739 50.9665 18.456 50.7413 20.508C51.6494 20.0571 52.501 19.5957 53.2875 19.1112C54.0158 17.1438 54.1178 15.1827 53.9714 13.5693C53.9074 12.8644 53.7974 12.2391 53.6773 11.7218C52.5979 11.445 51.8002 10.4657 51.8002 9.30005C51.8002 7.91934 52.9195 6.80005 54.3002 6.80005C55.6809 6.80005 56.8002 7.91934 56.8002 9.30005C56.8002 10.1813 56.3442 10.956 55.6553 11.4013C55.7855 11.9867 55.8969 12.6578 55.9632 13.3885C56.0668 14.5298 56.0631 15.8443 55.8376 17.2336C57.3111 15.9012 58.3579 14.3515 58.8652 12.4142C58.165 11.9712 57.7001 11.1899 57.7001 10.3C57.7001 8.91934 58.8194 7.80005 60.2001 7.80005C61.5808 7.80005 62.7001 8.91934 62.7001 10.3C62.7001 11.455 61.917 12.427 60.8528 12.714C59.5536 18.09 54.9169 20.8537 49.699 23.2113C48.4908 23.7572 47.2182 24.295 45.929 24.8398C45.5113 25.0163 45.0919 25.1936 44.6724 25.3721C45.9705 30.0394 46.5831 34.9473 47.0654 39.6991C47.4882 43.8646 47.6 48.8753 47.6 53.8V53.804V95.8C47.6 96.3523 47.1523 96.8 46.6 96.8ZM62.6 88.8C62.0477 88.8 61.6 88.3523 61.6 87.8V72.5951V72.5789V63.8087V63.7926V53.8C61.6 53.7893 61.6002 53.7786 61.6005 53.7679C61.6006 53.6955 61.6009 53.6231 61.6016 53.5506C61.5994 53.5088 61.5999 53.4673 61.6029 53.4263C61.6562 49.3542 62.579 45.0501 64.3749 40.9998L61.9622 38.6474C61.6934 38.7461 61.403 38.8 61.1 38.8C59.7193 38.8 58.6 37.6808 58.6 36.3C58.6 34.9193 59.7193 33.8 61.1 33.8C62.4807 33.8 63.6 34.9193 63.6 36.3C63.6 36.6415 63.5315 36.9669 63.4076 37.2634L65.2917 39.1004C65.8622 38.0106 66.4989 36.9459 67.2019 35.9164L64.8894 33.6038C64.6704 33.6665 64.4392 33.7001 64.2001 33.7001C62.8194 33.7001 61.7001 32.5808 61.7001 31.2001C61.7001 29.8194 62.8194 28.7001 64.2001 28.7001C65.5808 28.7001 66.7001 29.8194 66.7001 31.2001C66.7001 31.6032 66.6047 31.984 66.4352 32.3213L68.397 34.2831C69.0351 33.4687 69.7181 32.6819 70.4463 31.9284L68.7798 29.7065C68.5637 29.7674 68.3356 29.8 68.1 29.8C66.7193 29.8 65.6 28.6808 65.6 27.3C65.6 25.9193 66.7193 24.8 68.1 24.8C69.4807 24.8 70.6 25.9193 70.6 27.3C70.6 27.7093 70.5017 28.0956 70.3273 28.4365L71.8956 30.5276C72.0777 30.3633 72.2623 30.201 72.4492 30.0408C72.5183 29.9816 72.5931 29.9334 72.6715 29.8962C72.6248 29.7052 72.6 29.5055 72.6 29.3C72.6 27.9193 73.7193 26.8 75.1 26.8C76.4807 26.8 77.6 27.9193 77.6 29.3C77.6 30.6808 76.4807 31.8 75.1 31.8C74.6437 31.8 74.2159 31.6778 73.8477 31.4643C73.818 31.4976 73.7857 31.5294 73.7508 31.5593C67.4756 36.938 64.1024 44.8339 63.6524 52.1283C66.4996 51.1024 70.5345 48.8539 74.2692 46.1863C75.1474 45.559 76.0024 44.9132 76.8149 44.2605C75.7173 42.2064 74.9642 39.7116 75.9076 37.1269C75.3536 36.6683 75.0006 35.9754 75.0006 35.2C75.0006 33.8193 76.1199 32.7 77.5006 32.7C78.8813 32.7 80.0006 33.8193 80.0006 35.2C80.0006 36.4651 79.0609 37.5107 77.8414 37.6769C77.146 39.449 77.5312 41.2225 78.3847 42.9432C78.9718 42.4271 79.5247 41.9116 80.034 41.4023C81.2011 40.2352 82.0941 39.1449 82.6591 38.1908C82.2502 37.7458 82.0006 37.152 82.0006 36.5C82.0006 35.1193 83.1199 34 84.5006 34C85.8813 34 87.0006 35.1193 87.0006 36.5C87.0006 37.8807 85.8813 39 84.5006 39C83.8007 40.248 82.717 41.5477 81.4482 42.8165C79.7583 44.5064 77.6503 46.229 75.4317 47.8137C71.3618 50.7208 66.7851 53.2586 63.6 54.2559V61.7096L74.6506 52.8028C74.6174 52.6404 74.6 52.4722 74.6 52.3C74.6 50.9193 75.7193 49.8 77.1 49.8C78.4807 49.8 79.6 50.9193 79.6 52.3C79.6 53.6808 78.4807 54.8 77.1 54.8C76.6266 54.8 76.1839 54.6685 75.8065 54.4398L63.6 64.2784V70.496L73.7978 62.2764C73.6705 61.9764 73.6 61.6465 73.6 61.3C73.6 59.9193 74.7193 58.8 76.1 58.8C77.4807 58.8 78.6 59.9193 78.6 61.3C78.6 62.6808 77.4807 63.8 76.1 63.8C75.8089 63.8 75.5295 63.7503 75.2697 63.6589L63.6 73.0647V78.7098L66.7087 76.2299C66.6383 75.999 66.6005 75.7539 66.6005 75.5C66.6005 74.1193 67.7198 73 69.1005 73C70.4812 73 71.6005 74.1193 71.6005 75.5C71.6005 76.8807 70.4812 78 69.1005 78C68.7095 78 68.3395 77.9103 68.01 77.7503L63.6 81.2682V87.8C63.6 88.3523 63.1523 88.8 62.6 88.8ZM49.5 99C76.8381 99 99 76.8381 99 49.5C99 22.1619 76.8381 0 49.5 0C22.1619 0 0 22.1619 0 49.5C0 76.8381 22.1619 99 49.5 99Z" fill="#9CB42F"/>
</svg>
